Coordinates
version=1
nRows=19
nColumns=36
inDegrees=yes

Units are S.I. units (second, meters, Newtons, ...)
If the header above contains a line with 'inDegrees', this indicates whether rotational values are in degrees (yes) or radians (no).

endheader
time	pelvis_tilt	pelvis_list	pelvis_rotation	pelvis_tx	pelvis_ty	pelvis_tz	hip_flexion_r	hip_adduction_r	hip_rotation_r	knee_angle_r	knee_angle_r_beta	ankle_angle_r	subtalar_angle_r	mtp_angle_r	hip_flexion_l	hip_adduction_l	hip_rotation_l	knee_angle_l	knee_angle_l_beta	ankle_angle_l	subtalar_angle_l	mtp_angle_l	lumbar_extension	lumbar_bending	lumbar_rotation	arm_flex_r	arm_add_r	arm_rot_r	elbow_flex_r	pro_sup_r	arm_flex_l	arm_add_l	arm_rot_l	elbow_flex_l	pro_sup_l
      7.52542370	    -28.16224564	     28.05062229	     22.87993860	     -0.28082161	      0.56038555	     -0.00155804	     34.58302940	    -28.55103506	     13.94572146	    124.20106121	      2.16771745	     -3.88831301	      8.26342533	     -7.49999987	     84.15222943	    -18.47291271	    -23.37627151	     99.78287960	      1.74153979	     13.86778818	    -13.46692680	     -7.49999987	    -43.82240216	     -9.27492856	     15.56239288	     49.27495628	    -49.99695091	     -4.85254867	     28.08103059	     66.08583969	     22.12413260	    -29.82900083	     34.74404124	     96.69214366	     73.97187935
      7.54237290	    -27.06168721	     28.26026502	     22.12996428	     -0.28172158	      0.55839359	     -0.00677003	     33.20652602	    -28.85589905	     13.11109201	    123.22428579	      2.15066951	     -4.78072181	      8.35429997	     -7.49999987	     85.90863304	    -18.07428667	    -25.08240068	    100.86107871	      1.76035791	     13.48081159	    -12.80648362	     -7.49999987	    -43.50909597	     -9.46346880	     15.93315455	     47.95610234	    -49.18273840	     -4.75213532	     27.64813081	     65.99333022	     21.19504481	    -29.63373292	     35.05397666	     97.02056730	     73.91378079
      7.55932200	    -25.80387923	     27.78258141	     21.66866990	     -0.28225519	      0.55804869	     -0.01175655	     31.00309077	    -28.56982084	     10.44738869	    121.34396478	      2.11785171	     -6.65646573	      5.99344464	     -7.49999987	     87.86294266	    -17.29765948	    -26.16940659	    101.98575630	      1.77998724	     14.25476925	    -10.41405500	     -7.49999987	    -43.44944553	     -9.29932098	     16.64441082	     46.05364157	    -48.87700984	     -5.22881088	     26.93257521	     65.39855913	     20.65161727	    -29.31339960	     35.47212147	     98.60133449	     73.87586467
      7.57627120	    -24.75278379	     27.13032929	     21.00191970	     -0.28350683	      0.55727544	     -0.01596538	     29.70762191	    -27.99385176	      8.64102839	    119.80319173	      2.09096015	     -8.87685481	      3.52708222	     -7.49999987	     89.67438659	    -16.53894247	    -27.50806796	    102.62189895	      1.79109002	     14.71248588	     -8.45952209	     -7.49999987	    -43.20683495	     -9.04932841	     17.14772618	     44.81147058	    -48.14943930	     -5.53109454	     26.96390228	     64.81061762	     20.14938297	    -29.10272163	     36.27850568	     99.72847807	     73.89912011
      7.59322030	    -23.84032897	     26.10845244	     20.30799982	     -0.28538166	      0.55689828	     -0.02007454	     29.30426082	    -27.07213049	      7.94269307	    119.64610453	      2.08821846	    -10.17673081	      2.58066706	     -7.49999987	     91.41287611	    -15.58590626	    -28.70812001	    102.58906161	      1.79051690	     14.74661626	     -6.80698189	     -7.49999987	    -42.80683206	     -8.53297694	     17.68861761	     43.94083468	    -47.28837616	     -5.59652629	     27.09069721	     64.37297220	     19.75023932	    -28.74892694	     36.98163242	    100.53539297	     73.93696753
      7.61016950	    -22.95784168	     24.92473890	     19.52569235	     -0.28727315	      0.55642341	     -0.02428264	     29.48202713	    -26.03323544	      8.14343783	    120.37590967	      2.10095596	    -10.60794981	      2.71593314	     -7.49999987	     92.89644348	    -14.52210257	    -29.54873767	    102.15329706	      1.78291138	     14.78348250	     -5.22038359	     -7.49999987	    -42.39728674	     -7.86114562	     18.27609099	     43.29152049	    -46.32275643	     -5.53230708	     27.45246687	     63.87456523	     19.51086346	    -28.23596685	     37.58675837	    101.14111406	     73.99554633
      7.62711860	    -22.11181902	     23.81100204	     18.83108908	     -0.28814534	      0.55608454	     -0.02826040	     29.48410365	    -25.14708754	      8.28033874	    121.25330563	      2.11626941	    -10.04929308	      3.27486682	     -7.49999987	     93.88092369	    -13.17084908	    -30.02718580	    101.52921726	      1.77201913	     14.09237861	     -4.16506759	     -7.49999987	    -42.10426434	     -7.21882411	     18.58110923	     42.75195220	    -45.17493719	     -5.28302685	     27.78521762	     63.57152234	     19.51023505	    -27.68961791	     37.91790367	    101.50366219	     74.01695885
      7.64406780	    -21.32812330	     22.81032775	     17.98921129	     -0.28756500	      0.55623118	     -0.03105232	     29.36751021	    -24.35499781	      8.31430165	    121.74753384	      2.12489532	     -9.54475041	      3.54729568	     -7.49999987	     94.37281480	    -11.82973822	    -30.11825127	    100.89552233	      1.76095907	     13.33654594	     -3.23855940	     -7.49999987	    -42.02443202	     -6.97451105	     18.67777680	     42.25477089	    -43.70733462	     -4.94279652	     28.05145544	     63.49182101	     19.84942749	    -27.05099921	     38.03395277	    101.74613258	     74.00081565
      7.66101690	    -20.64301501	     21.38662840	     17.18687916	     -0.28627979	      0.55626662	     -0.03347887	     29.18915054	    -23.17087934	      8.00636833	    122.10789551	      2.13118482	     -8.54459479	      4.93545331	     -7.49999987	     94.94140179	    -10.39154652	    -29.22353938	    100.35842820	      1.75158500	     12.95142839	     -1.02202136	     -7.49999987	    -41.83404869	     -6.39845354	     18.58111817	     41.79320888	    -41.87281940	     -4.22501149	     28.72676454	     63.23492704	     20.08484891	    -26.88828137	     38.29313668	    102.01896117	     74.02745460
      7.67796610	    -19.97752839	     19.88076375	     16.30950229	     -0.28518039	      0.55498584	     -0.03632360	     29.09683594	    -21.88872066	      7.97545210	    122.60591874	      2.13987696	     -7.93274145	      6.40206203	     -7.49999987	     95.42541473	     -9.14956675	    -27.74786073	    100.10610461	      1.74718113	     12.94503944	      1.44067879	     -7.49999987	    -41.72599707	     -5.92224519	     18.42610608	     41.29950168	    -39.80037541	     -3.40674663	     29.29742450	     63.07612980	     20.52970841	    -26.74741061	     38.54767969	    102.33973622	     74.04768601
      7.69491530	    -19.34914281	     18.20536958	     15.53184290	     -0.28361116	      0.55175893	     -0.04089162	     28.78951590	    -20.50128597	      7.90354297	    123.13920325	      2.14918454	     -7.36363888	      7.86872377	     -7.49999987	     96.08820459	     -7.96493140	    -25.64541377	    100.44013640	      1.75301108	     13.68209243	      3.44373103	     -7.49999987	    -41.32638581	     -5.22987319	     18.25436759	     40.52310792	    -37.51472539	     -2.61663798	     29.76043531	     63.01692970	     20.93091380	    -26.65078736	     38.96587949	    102.63230751	     74.06447854
      7.71186440	    -18.76142254	     16.44037335	     14.87717725	     -0.28100677	      0.54766473	     -0.04579238	     28.09516004	    -19.04937835	      7.45334301	    123.26843380	      2.15144003	     -6.74484979	      8.75957656	     -7.49999987	     97.02510669	     -6.82786448	    -23.17350608	    101.43828243	      1.77043202	     15.00811073	      4.59047885	     -7.49999987	    -40.71866994	     -4.33394892	     18.06433482	     39.32644299	    -35.16761874	     -1.78814665	     30.19376880	     63.00255890	     21.23761056	    -26.51207611	     39.50643391	    103.05130997	     74.09603022
      7.72881360	    -18.08143878	     14.60979349	     14.25476486	     -0.27765308	      0.54373592	     -0.04853524	     27.01426243	    -17.29731927	      6.50150917	    122.90614259	      2.14511686	     -6.28212499	      9.01527132	     -7.49999987	     98.01466556	     -5.77924055	    -20.42206883	    102.65127638	      1.79160275	     16.18942912	      4.65882851	     -7.49999987	    -40.06740378	     -3.40989700	     17.87010537	     37.73338939	    -32.67396912	     -0.98666156	     30.67404656	     63.05246609	     21.57370452	    -26.51111237	     40.19647800	    103.66026078	     74.18440004
      7.74576270	    -17.12442690	     12.66587851	     13.67068516	     -0.27376765	      0.54128691	     -0.04923201	     25.47195891	    -15.00689955	      5.12490853	    122.14403137	      2.13181551	     -6.29880574	      8.54806299	     -7.49999987	     98.74558585	     -4.84294408	    -17.39165403	    103.71223329	      1.81011995	     16.75525001	      3.81813679	     -7.49999987	    -39.62817340	     -2.38815589	     17.95632890	     35.33399516	    -30.27853078	     -0.39945466	     31.99880019	     62.91257954	     22.27186696	    -26.40191623	     41.08124165	    104.41971862	     73.42272929
      7.76271190	    -15.87237925	     11.19254069	     13.21197896	     -0.26981536	      0.54178313	     -0.04973982	     23.45394112	    -12.80701999	      3.87565500	    121.21738804	      2.11564253	     -6.66353102	      7.86369344	     -7.49999987	     98.69743064	     -3.83420005	    -14.76399548	    104.39180211	      1.82198066	     17.09027374	      2.60373500	     -7.49999987	    -39.49741301	     -1.80185336	     18.12921898	     32.20401359	    -27.73471877	     -1.36253769	     33.71227344	     64.27572425	     24.25582220	    -26.53742754	     43.37594063	    104.91084097	     74.59174020
      7.77966100	    -14.65852716	     10.15292484	     12.85640566	     -0.26671131	      0.54542723	     -0.05211553	     21.42571033	    -10.80547783	      3.04538005	    120.03973279	      2.09508857	     -6.89511334	      7.20169965	     -7.49999987	     98.08600647	     -2.63482096	    -12.73184661	    104.64050945	      1.82632142	     17.25568217	      1.38366865	     -7.49999987	    -39.34230168	     -1.29099595	     17.38902592	     29.90763813	    -24.78723778	     -1.06249315	     34.73532966	     64.51932865	     25.54539141	    -26.96565883	     44.59512726	    105.79387681	     73.98300165
      7.79661020	    -13.88642856	      9.34633361	     12.53853889	     -0.26363871	      0.55035536	     -0.05676791	     19.77374671	     -8.90164135	      2.76945466	    118.55777165	      2.06922347	     -6.86111518	      6.33429130	     -7.49999987	     97.39964503	     -1.37109838	    -11.34170233	    104.65070939	      1.82649944	     17.57501180	      0.12246917	     -7.49999987	    -38.57605391	     -0.76519212	     16.20016044	     27.80676941	    -21.79662926	     -0.35473356	     35.10462681	     64.88041609	     26.51125168	    -27.31255854	     45.39560906	    105.97341198	     74.13066345
      7.81355930	    -12.84623226	      8.92785336	     12.30609316	     -0.25905786	      0.55671659	     -0.06293245	     17.51067209	     -7.27170432	      2.82786478	    116.60946598	      2.03521912	     -7.10091679	      4.59853875	     -7.49999987	     95.88047796	      0.00605347	    -10.64350723	    104.60517564	      1.82570473	     18.00323162	     -1.31743001	     -7.49999987	    -38.04382317	     -0.41664779	     15.59503544	     24.63001698	    -19.59316975	     -1.00207517	     36.10433088	     68.28646640	     28.99931078	    -27.13145319	     47.87461369	    105.04368470	     74.61817576
      7.83050850	    -12.16661060	      8.43481814	     12.33890406	     -0.25173826	      0.56282239	     -0.07034137	     15.09141576	     -5.92605971	      2.87161695	    114.15699477	      1.99241542	     -7.36322513	      2.60565040	     -7.49999987	     94.39968189	      1.48996646	    -10.12195925	    104.67433710	      1.82691182	     18.57860133	     -3.49689902	     -7.49999987	    -36.85223738	      0.42951033	     13.63816179	     22.18276627	    -16.96744574	     -0.31873600	     36.01289347	     68.62372418	     29.30267567	    -27.27564217	     48.30639847	    103.94642828	     74.59068099
